<svg xmlns="http://www.w3.org/2000/svg" fill="none" viewBox="0 0 2239 2064" height="2064" width="2239">
<path fill="url(#paint0_radial_11864_192574)" d="M1309.07 848.37L949.437 850.386C933.952 850.482 918.854 845.778 906.176 836.851L826.043 780.405C813.558 771.573 798.557 766.869 783.266 766.869H660.453V1318.95C660.453 1370.98 702.939 1413.12 755.394 1413.12H1383.4V921.616C1383.4 881.009 1350.1 848.082 1309.07 848.37Z"></path>
<path fill="url(#paint1_linear_11864_192574)" d="M1093.15 735.382H1483.66C1536.11 735.382 1578.6 777.525 1578.6 829.555V1318.85C1578.6 1370.88 1536.11 1413.02 1483.66 1413.02H1383.4V921.616C1383.4 881.009 1350.1 848.082 1309.07 848.37L949.437 850.386C933.952 850.482 918.854 845.778 906.176 836.851L826.043 780.405C813.558 771.573 798.557 766.869 783.266 766.869H660.453V753.718C660.453 701.687 702.939 659.545 755.394 659.545H933.565C951.566 659.545 969.083 665.209 983.503 675.768L1043.12 719.159C1057.64 729.718 1075.15 735.382 1093.15 735.382Z" clip-rule="evenodd" fill-rule="evenodd"></path>
<defs>
<radialGradient gradientTransform="translate(1655.5 141.854) scale(1713.25 1560.31)" gradientUnits="userSpaceOnUse" r="1" cy="0" cx="0" id="paint0_radial_11864_192574">
<stop stop-color="#6D4AFF" offset="0.5561"></stop>
<stop stop-color="#FF50C3" offset="1"></stop>
</radialGradient>
<linearGradient gradientUnits="userSpaceOnUse" y2="1526.47" x2="1785.62" y1="266.273" x1="648.349" id="paint1_linear_11864_192574">
<stop stop-color="#7341FF"></stop>
<stop stop-color="#B487FF" offset="0.3593"></stop>
<stop stop-color="#FFC8FF" offset="1"></stop>
</linearGradient>
</defs>
</svg>
